<?xml version="1.0" standalone="no"?><!DOCTYPE svg PUBLIC "-//W3C//DTD SVG 1.1//EN" "http://www.w3.org/Graphics/SVG/1.1/DTD/svg11.dtd"><svg t="1628759392028" class="icon" viewBox="0 0 1024 1024" version="1.1" xmlns="http://www.w3.org/2000/svg" p-id="7013" width="24" height="24" xmlns:xlink="http://www.w3.org/1999/xlink"><defs><style type="text/css"></style></defs><path d="M941.1 865.3L729.4 653.6c17.6-23.5 32.3-49 43.9-76.3 18.9-44.7 28.5-92.2 28.5-141.2s-9.6-96.4-28.5-141.2c-18.3-43.2-44.4-82-77.7-115.3-33.3-33.3-72.1-59.4-115.3-77.7-44.7-18.9-92.2-28.5-141.2-28.5S342.7 83.1 298 102c-43.2 18.3-82 44.4-115.3 77.7C149.4 213 123.3 251.8 105 295c-18.9 44.7-28.5 92.2-28.5 141.2s9.6 96.4 28.5 141.2c18.3 43.2 44.4 82 77.7 115.3C216 725.8 254.8 752 298 770.2c44.7 18.9 92.2 28.5 141.2 28.5s96.4-9.6 141.2-28.5c39.3-16.6 75-39.8 106.2-69L896 910.6c6.2 6.2 14.4 9.4 22.6 9.4s16.4-3.1 22.6-9.4c12.4-12.5 12.4-32.8-0.1-45.3z m-502-130.6c-79.8 0-154.8-31.1-211.2-87.5-56.4-56.4-87.5-131.4-87.5-211.2 0-79.8 31.1-154.8 87.5-211.2 56.4-56.4 131.4-87.5 211.2-87.5s154.8 31.1 211.2 87.5c56.4 56.4 87.5 131.4 87.5 211.2 0 79.8-31.1 154.8-87.5 211.2-56.4 56.5-131.4 87.5-211.2 87.5z" p-id="7014" fill="#999999"></path></svg>