<?xml version="1.0" standalone="no"?><!DOCTYPE svg PUBLIC "-//W3C//DTD SVG 1.1//EN" "http://www.w3.org/Graphics/SVG/1.1/DTD/svg11.dtd"><svg t="1628758836578" class="icon" viewBox="0 0 1024 1024" version="1.1" xmlns="http://www.w3.org/2000/svg" p-id="3616" xmlns:xlink="http://www.w3.org/1999/xlink" width="32" height="32"><defs><style type="text/css"></style></defs><path d="M512.5 548.6c-5.1 0-10.1-1.2-14.8-3.6l-403-209.3c-10.6-5.5-17.2-16.5-17.2-28.4s6.6-22.9 17.2-28.4l403-209.3c4.6-2.4 9.6-3.6 14.8-3.6 5.1 0 10.2 1.2 14.8 3.6l402 209.4c10.6 5.5 17.2 16.5 17.2 28.4 0 11.9-6.6 22.9-17.2 28.4L527.3 545c-4.7 2.4-9.7 3.6-14.8 3.6zM178.9 307.3l333.6 173.3 332.7-173.3L512.5 134 178.9 307.3z" p-id="3617" fill="#03DAC5"></path><path d="M512.5 753.3c-5.1 0-10.1-1.2-14.8-3.6l-403-209.3c-15.7-8.1-21.8-27.5-13.6-43.1 8.1-15.7 27.5-21.8 43.1-13.6l388.2 201.7 387.2-201.6c15.7-8.2 35-2.1 43.2 13.6 8.2 15.7 2.1 35-13.6 43.2l-402 209.3c-4.6 2.2-9.6 3.4-14.7 3.4z" p-id="3618" fill="#03DAC5"></path><path d="M512.5 958.1c-5.1 0-10.1-1.2-14.8-3.6l-403-209.3C79.1 737 73 717.7 81.1 702c8.1-15.7 27.5-21.8 43.1-13.6L512.5 890l387.2-201.6c15.7-8.2 35-2.1 43.2 13.6 8.2 15.7 2.1 35-13.6 43.2l-402 209.3c-4.7 2.4-9.7 3.6-14.8 3.6z" p-id="3619" fill="#03DAC5"></path></svg>